<?xml version="1.0" encoding="utf-8"?>
<!-- Generator: Adobe Illustrator 25.0.1, SVG Export Plug-In . SVG Version: 6.00 Build 0)  -->
<svg version="1.1" id="圖層_1" xmlns="http://www.w3.org/2000/svg" xmlns:xlink="http://www.w3.org/1999/xlink" x="0px" y="0px"
	 viewBox="0 0 200 200" style="enable-background:new 0 0 200 200;" xml:space="preserve">
<style type="text/css">
	.st0{fill:#FFFFFF;}
	.st1{fill:#FFFFFF;stroke:#000000;stroke-width:16;stroke-linecap:round;stroke-linejoin:round;stroke-miterlimit:10;}
</style>
<g>
	<path class="st0" d="M86.46,158.24c-18.3,0-35.5-7.16-48.44-20.16c-26.74-26.86-26.74-70.56,0-97.42
		c12.94-13,30.14-20.16,48.44-20.16s35.5,7.16,48.44,20.16c26.74,26.86,26.74,70.56,0,97.42
		C121.96,151.08,104.75,158.24,86.46,158.24z"/>
	<path d="M86.46,28.5c16.15,0,31.34,6.32,42.77,17.8c23.64,23.75,23.64,62.38,0,86.13c-11.43,11.48-26.62,17.8-42.77,17.8
		s-31.34-6.32-42.77-17.8c-23.64-23.75-23.64-62.38,0-86.13C55.12,34.82,70.31,28.5,86.46,28.5 M86.46,12.5
		c-19.58,0-39.17,7.5-54.11,22.51c-29.88,30.02-29.88,78.69,0,108.71c14.94,15.01,34.52,22.51,54.11,22.51s39.17-7.5,54.11-22.51
		c29.88-30.02,29.88-78.69,0-108.71C125.62,20.01,106.04,12.5,86.46,12.5L86.46,12.5z"/>
</g>
<line class="st1" x1="139.54" y1="142.45" x2="182.04" y2="185.25"/>
</svg>
